# xmcd CD database file
#
# Track frame offsets:
#	150
#	20555
#	41145
#	62027
#	79622
#	99182
#	117342
#	139860
#	158217
#	176830
#	199020
#	221357
#	251402
#
# Disc length: 4440 seconds
#
# Revision: 0
# Processed by: cddbd v1.5PL3 Copyright (c) Steve Scherf et al.
# Submitted via: CDex 1.50beta10
#
DISCID=af11560d
DTITLE=アルファ - エンドルフィン
DYEAR=2002
DGENRE=
TTITLE0=39DMP
TTITLE1=ALIEN24
TTITLE2=アクティマン
TTITLE3=エレキテル
TTITLE4=イーアル雀拳
TTITLE5=ボンマーチ
TTITLE6=DO DIG DO！！
TTITLE7=センチメンタルラブ
TTITLE8=HITORI GOD
TTITLE9=怪ウツ君
TTITLE10=エクスタシー温泉
TTITLE11=BLUN
TTITLE12=CCCD-DATA
EXTD=YEAR: 2002
EXTT0=
EXTT1=
EXTT2=
EXTT3=
EXTT4=
EXTT5=
EXTT6=
EXTT7=
EXTT8=
EXTT9=
EXTT10=
EXTT11=
EXTT12=
PLAYORDER=
